<?xml version="1.0" encoding="utf-8"?>
<!-- Generator: Adobe Illustrator 24.0.1, SVG Export Plug-In . SVG Version: 6.00 Build 0)  -->
<svg version="1.1" id="Capa_1" xmlns="http://www.w3.org/2000/svg" xmlns:xlink="http://www.w3.org/1999/xlink" x="0px" y="0px"
	 viewBox="0 0 512 512" style="enable-background:new 0 0 512 512;" xml:space="preserve">
<style type="text/css">
	.st0{fill:#020203;}
	.st1{fill:#FFFFFF;}
</style>
<g>
	<circle class="st0" cx="253.8" cy="261.2" r="238"/>
	<g>
		<g>
			<path class="st1" d="M253.8,138.4c40,0,44.8,0.2,60.6,0.9c14.6,0.7,22.5,3.1,27.8,5.2c7,2.7,12,6,17.2,11.2
				c5.2,5.2,8.5,10.2,11.2,17.2c2.1,5.3,4.5,13.2,5.2,27.8c0.7,15.8,0.9,20.5,0.9,60.6s-0.2,44.8-0.9,60.6
				c-0.7,14.6-3.1,22.5-5.2,27.8c-2.7,7-6,12-11.2,17.2c-5.2,5.2-10.2,8.5-17.2,11.2c-5.3,2.1-13.2,4.5-27.8,5.2
				c-15.8,0.7-20.5,0.9-60.6,0.9c-40,0-44.8-0.2-60.6-0.9c-14.6-0.7-22.5-3.1-27.8-5.2c-7-2.7-12-6-17.2-11.2
				c-5.2-5.2-8.5-10.2-11.2-17.2c-2.1-5.3-4.5-13.2-5.2-27.8c-0.7-15.8-0.9-20.5-0.9-60.6s0.2-44.8,0.9-60.6
				c0.7-14.6,3.1-22.5,5.2-27.8c2.7-7,6-12,11.2-17.2c5.2-5.2,10.2-8.5,17.2-11.2c5.3-2.1,13.2-4.5,27.8-5.2
				C209.1,138.5,213.8,138.4,253.8,138.4 M253.8,111.4c-40.7,0-45.8,0.2-61.8,0.9c-16,0.7-26.8,3.3-36.4,7
				c-9.9,3.8-18.2,9-26.5,17.3c-8.3,8.3-13.5,16.7-17.3,26.5c-3.7,9.5-6.2,20.4-7,36.4c-0.7,16-0.9,21.1-0.9,61.8
				c0,40.7,0.2,45.8,0.9,61.8c0.7,16,3.3,26.8,7,36.4c3.8,9.9,9,18.2,17.3,26.5c8.3,8.3,16.7,13.5,26.5,17.3
				c9.5,3.7,20.4,6.2,36.4,7c16,0.7,21.1,0.9,61.8,0.9c40.7,0,45.8-0.2,61.8-0.9c16-0.7,26.8-3.3,36.4-7c9.9-3.8,18.2-9,26.5-17.3
				c8.3-8.3,13.5-16.7,17.3-26.5c3.7-9.5,6.2-20.4,7-36.4c0.7-16,0.9-21.1,0.9-61.8s-0.2-45.8-0.9-61.8c-0.7-16-3.3-26.8-7-36.4
				c-3.8-9.9-9-18.2-17.3-26.5c-8.3-8.3-16.7-13.5-26.5-17.3c-9.5-3.7-20.4-6.2-36.4-7C299.6,111.5,294.5,111.4,253.8,111.4
				L253.8,111.4z"/>
			<path class="st1" d="M253.8,184.3c-42.5,0-77,34.5-77,77s34.5,77,77,77c42.5,0,77-34.5,77-77S296.3,184.3,253.8,184.3z
				 M253.8,311.2c-27.6,0-50-22.4-50-50s22.4-50,50-50s50,22.4,50,50S281.4,311.2,253.8,311.2z"/>
			<circle class="st1" cx="333.8" cy="181.2" r="18"/>
		</g>
	</g>
</g>
</svg>
