<?xml version="1.0" encoding="utf-8"?>
<!-- Generator: Adobe Illustrator 24.0.1, SVG Export Plug-In . SVG Version: 6.00 Build 0)  -->
<svg version="1.1" id="Capa_1" xmlns="http://www.w3.org/2000/svg" xmlns:xlink="http://www.w3.org/1999/xlink" x="0px" y="0px"
	 viewBox="0 0 512 512" style="enable-background:new 0 0 512 512;" xml:space="preserve">
<style type="text/css">
	.st0{fill:#020203;}
	.st1{fill:#FFFFFF;}
	.st2{fill-rule:evenodd;clip-rule:evenodd;fill:#FFFFFF;}
</style>
<g>
	<circle class="st0" cx="253.8" cy="261.2" r="238"/>
	<g>
		<g>
			<path class="st1" d="M253.8,138.4c40,0,44.8,0.2,60.6,0.9c14.6,0.7,22.5,3.1,27.8,5.2c7,2.7,12,6,17.2,11.2
				c5.2,5.2,8.5,10.2,11.2,17.2c2.1,5.3,4.5,13.2,5.2,27.8c0.7,15.8,0.9,20.5,0.9,60.6s-0.2,44.8-0.9,60.6
				c-0.7,14.6-3.1,22.5-5.2,27.8c-2.7,7-6,12-11.2,17.2c-5.2,5.2-10.2,8.5-17.2,11.2c-5.3,2.1-13.2,4.5-27.8,5.2
				c-15.8,0.7-20.5,0.9-60.6,0.9c-40,0-44.8-0.2-60.6-0.9c-14.6-0.7-22.5-3.1-27.8-5.2c-7-2.7-12-6-17.2-11.2
				c-5.2-5.2-8.5-10.2-11.2-17.2c-2.1-5.3-4.5-13.2-5.2-27.8c-0.7-15.8-0.9-20.5-0.9-60.6s0.2-44.8,0.9-60.6
				c0.7-14.6,3.1-22.5,5.2-27.8c2.7-7,6-12,11.2-17.2c5.2-5.2,10.2-8.5,17.2-11.2c5.3-2.1,13.2-4.5,27.8-5.2
				C209.1,138.5,213.8,138.4,253.8,138.4 M253.8,111.4c-40.7,0-45.8,0.2-61.8,0.9c-16,0.7-26.8,3.3-36.4,7
				c-9.9,3.8-18.2,9-26.5,17.3c-8.3,8.3-13.5,16.7-17.3,26.5c-3.7,9.5-6.2,20.4-7,36.4c-0.7,16-0.9,21.1-0.9,61.8
				c0,40.7,0.2,45.8,0.9,61.8c0.7,16,3.3,26.8,7,36.4c3.8,9.9,9,18.2,17.3,26.5c8.3,8.3,16.7,13.5,26.5,17.3
				c9.5,3.7,20.4,6.2,36.4,7c16,0.7,21.1,0.9,61.8,0.9c40.7,0,45.8-0.2,61.8-0.9c16-0.7,26.8-3.3,36.4-7c9.9-3.8,18.2-9,26.5-17.3
				c8.3-8.3,13.5-16.7,17.3-26.5c3.7-9.5,6.2-20.4,7-36.4c0.7-16,0.9-21.1,0.9-61.8s-0.2-45.8-0.9-61.8c-0.7-16-3.3-26.8-7-36.4
				c-3.8-9.9-9-18.2-17.3-26.5c-8.3-8.3-16.7-13.5-26.5-17.3c-9.5-3.7-20.4-6.2-36.4-7C299.6,111.5,294.5,111.4,253.8,111.4
				L253.8,111.4z"/>
			<path class="st1" d="M253.8,184.3c-42.5,0-77,34.5-77,77s34.5,77,77,77c42.5,0,77-34.5,77-77S296.3,184.3,253.8,184.3z
				 M253.8,311.2c-27.6,0-50-22.4-50-50s22.4-50,50-50s50,22.4,50,50S281.4,311.2,253.8,311.2z"/>
			<circle class="st1" cx="333.8" cy="181.2" r="18"/>
		</g>
	</g>
</g>
<g>
	<circle class="st0" cx="253.8" cy="261.2" r="238"/>
	<g>
		<g id="WA_Logo_10_">
			<g>
				<path class="st2" d="M368.3,149.7c-28.5-28.5-66.4-44.3-106.8-44.3c-83.2,0-151,67.7-151,150.9c0,26.6,6.9,52.6,20.2,75.5
					L109.2,410l80.1-21c22.1,12,46.9,18.4,72.2,18.4h0.1c0,0,0,0,0,0c83.2,0,151-67.7,151-151C412.5,216.1,396.8,178.2,368.3,149.7z
					 M261.5,381.9L261.5,381.9c-22.6,0-44.7-6.1-63.9-17.5l-4.6-2.7l-47.5,12.5l12.7-46.3l-3-4.7c-12.6-20-19.2-43.1-19.2-66.8
					c0-69.2,56.3-125.5,125.6-125.5c33.5,0,65,13.1,88.7,36.8c23.7,23.7,36.7,55.2,36.7,88.8C387,325.6,330.7,381.9,261.5,381.9z
					 M330.4,288c-3.8-1.9-22.3-11-25.8-12.3c-3.5-1.3-6-1.9-8.5,1.9c-2.5,3.8-9.7,12.3-11.9,14.8c-2.2,2.5-4.4,2.8-8.2,0.9
					c-3.8-1.9-15.9-5.9-30.3-18.7c-11.2-10-18.8-22.4-21-26.1c-2.2-3.8-0.2-5.8,1.7-7.7c1.7-1.7,3.8-4.4,5.7-6.6
					c1.9-2.2,2.5-3.8,3.8-6.3c1.3-2.5,0.6-4.7-0.3-6.6c-0.9-1.9-8.5-20.5-11.6-28c-3.1-7.4-6.2-6.4-8.5-6.5
					c-2.2-0.1-4.7-0.1-7.2-0.1c-2.5,0-6.6,0.9-10.1,4.7c-3.5,3.8-13.2,12.9-13.2,31.5c0,18.6,13.5,36.5,15.4,39
					c1.9,2.5,26.6,40.6,64.5,57c9,3.9,16,6.2,21.5,7.9c9,2.9,17.3,2.5,23.8,1.5c7.2-1.1,22.3-9.1,25.5-17.9
					c3.1-8.8,3.1-16.4,2.2-17.9C336.6,290.8,334.1,289.8,330.4,288z"/>
			</g>
		</g>
	</g>
</g>
</svg>
